<svg width="1024" height="768" viewBox="0 0 1024 768" fill="none" xmlns="http://www.w3.org/2000/svg">
<path d="M278 399.913C278 407.43 279.702 414.097 283.106 420.054C286.51 426.011 291.333 430.834 297.29 434.238C303.248 437.642 309.914 439.344 317.148 439.344H317.715H317.999H349.346C351.331 439.344 352.892 438.777 354.168 437.5C355.586 436.082 356.154 434.522 356.154 432.678V402.466V399.913V335.234C356.154 333.106 355.586 331.404 354.168 329.986C352.892 328.709 351.189 328 348.92 328C346.934 328 345.232 328.709 343.814 329.986C342.395 331.404 341.686 333.106 341.686 335.234V373.531C338.424 369.559 334.452 366.439 329.63 364.027C324.949 361.758 319.843 360.623 314.311 360.623C307.503 360.623 301.404 362.325 295.872 365.729C290.34 369.275 285.943 373.956 282.823 379.913C279.702 385.871 278 392.679 278 399.913ZM291.9 399.913C291.9 394.948 293.035 390.41 295.304 386.438C297.574 382.467 300.553 379.204 304.382 376.935C308.212 374.665 312.467 373.389 317.148 373.389C321.97 373.389 326.226 374.665 330.055 376.935C333.885 379.204 336.864 382.467 338.991 386.438C341.261 390.41 342.254 394.948 342.254 399.913C342.254 405.019 341.261 409.558 338.991 413.53C336.864 417.643 333.885 420.905 330.055 423.175C326.226 425.444 321.97 426.579 317.148 426.579C312.467 426.579 308.212 425.444 304.382 423.175C300.553 420.905 297.574 417.643 295.304 413.53C293.035 409.558 291.9 405.019 291.9 399.913Z" fill="#29C2E2"/>
<path d="M431.02 365.729C425.063 362.325 418.397 360.623 411.021 360.623C403.362 360.623 396.695 362.325 390.738 365.729C384.781 369.134 380.1 373.672 376.838 379.63C373.433 385.587 371.873 392.395 371.873 400.055C371.873 407.714 373.433 414.381 376.838 420.338C380.1 426.295 384.781 430.976 390.738 434.38C396.695 437.784 403.362 439.344 411.021 439.344C418.538 439.344 425.205 437.784 431.162 434.38C437.119 430.976 441.658 426.295 445.063 420.338C448.325 414.381 450.027 407.714 450.027 400.055C450.027 392.395 448.325 385.587 444.921 379.63C441.517 373.672 436.978 369.134 431.02 365.729ZM397.972 376.793C401.801 374.524 406.198 373.389 411.021 373.389C415.843 373.389 420.099 374.524 423.928 376.793C427.758 379.062 430.737 382.325 432.864 386.296C434.992 390.41 436.127 394.948 436.127 400.055C436.127 405.161 434.992 409.842 432.864 413.813C430.737 417.785 427.758 420.905 423.928 423.175C420.099 425.444 415.843 426.579 411.021 426.579C406.198 426.579 401.801 425.444 397.972 423.175C394.142 420.905 391.163 417.785 389.036 413.813C386.766 409.842 385.773 405.161 385.773 400.055C385.773 394.948 386.766 390.41 389.036 386.296C391.163 382.325 394.142 379.062 397.972 376.793Z" fill="#3BBFD1"/>
<path d="M466.545 364.355V376.553V411.588C466.545 416.836 467.538 421.517 469.808 425.63C471.935 429.885 474.914 433.148 478.744 435.559C482.573 437.97 486.829 439.105 491.509 439.105H494.062C496.474 439.105 498.459 438.537 500.02 437.119C501.58 435.843 502.431 434.14 502.431 432.013C502.431 430.027 501.722 428.325 500.587 426.907C499.452 425.63 498.034 424.921 496.332 424.921H491.509C488.389 424.921 485.836 423.644 483.85 421.091C481.722 418.538 480.729 415.418 480.729 411.588V376.553H492.786C494.772 376.553 496.332 375.986 497.608 374.851C498.743 373.717 499.452 372.298 499.452 370.596C499.452 368.752 498.743 367.192 497.608 366.057C496.332 364.923 494.772 364.355 492.786 364.355H480.729V343.93C480.729 341.944 480.02 340.242 478.744 338.824C477.325 337.547 475.623 336.838 473.637 336.838C471.51 336.838 469.808 337.547 468.531 338.824C467.113 340.242 466.545 341.944 466.545 343.93V364.355Z" fill="#4CBDC0"/>
<path d="M507 364.445V376.612V411.555C507 416.789 507.996 421.458 510.273 425.56C512.407 429.804 515.395 433.058 519.237 435.463C523.079 437.868 527.348 439 532.044 439H534.605C537.024 439 539.016 438.434 540.581 437.019C542.146 435.746 543 434.049 543 431.926C543 429.946 542.289 428.248 541.15 426.834C540.012 425.56 538.589 424.853 536.881 424.853H532.044C528.913 424.853 526.352 423.58 524.36 421.033C522.225 418.487 521.229 415.374 521.229 411.555V376.612H533.324C535.316 376.612 536.881 376.046 538.162 374.914C539.3 373.782 540.012 372.368 540.012 370.67C540.012 368.831 539.3 367.275 538.162 366.143C536.881 365.011 535.316 364.445 533.324 364.445H521.229V344.074C521.229 342.093 520.518 340.395 519.237 338.981C517.814 337.707 516.107 337 514.115 337C511.98 337 510.273 337.707 508.992 338.981C507.569 340.395 507 342.093 507 344.074V364.445Z" fill="#4CBDC0"/>
<path d="M559.986 329.986C558.567 331.404 558 333.106 558 335.092V412.537C558 417.643 558.851 422.182 560.695 426.153C562.397 430.125 564.95 433.245 568.212 435.515C571.475 437.784 575.163 438.777 579.276 438.777H579.56C582.396 438.777 584.666 438.21 586.51 436.791C588.212 435.515 589.205 433.813 589.205 431.685C589.205 429.699 588.496 427.997 587.361 426.579C586.226 425.302 584.666 424.593 582.822 424.593H579.276C577.148 424.593 575.446 423.458 574.17 421.189C572.751 418.919 572.184 416.083 572.184 412.537V335.092C572.184 333.106 571.475 331.404 570.198 329.986C568.78 328.709 567.078 328 565.092 328C562.964 328 561.262 328.709 559.986 329.986Z" fill="#5EBAAE"/>
<path d="M667.381 403.645C668.516 402.51 669.225 400.95 669.225 399.106C669.225 391.73 667.807 385.064 664.97 379.248C662.133 373.575 658.02 369.036 652.772 365.774C647.382 362.653 641.141 360.951 633.907 360.951C626.531 360.951 619.865 362.653 614.05 366.057C608.234 369.461 603.695 374.142 600.433 380.099C597.171 386.057 595.61 392.865 595.61 400.383C595.61 408.042 597.313 414.708 600.717 420.666C604.121 426.623 608.943 431.304 615.184 434.708C621.283 438.112 628.234 439.672 636.035 439.672C640.29 439.672 644.829 438.963 649.651 437.261C654.474 435.701 658.445 433.573 661.708 431.02C663.126 429.885 663.977 428.467 663.977 426.765C663.977 425.063 663.126 423.361 661.424 421.942C660.289 421.091 658.871 420.524 657.169 420.524C655.325 420.524 653.765 421.091 652.488 422.084C650.502 423.644 647.949 424.921 644.829 425.914C641.708 427.048 638.872 427.474 636.035 427.474C628.801 427.474 622.702 425.488 617.737 421.375C612.773 417.403 609.794 412.013 608.801 405.347H662.701C664.545 405.347 666.105 404.78 667.381 403.645ZM617.028 378.823C621.283 375.135 626.957 373.149 633.907 373.149C640.148 373.149 645.112 375.135 649.084 378.823C652.914 382.653 655.325 387.759 656.176 394H608.943C610.078 387.759 612.773 382.653 617.028 378.823Z" fill="#76B696"/>
<path d="M731.365 363.93C726.542 361.944 721.01 360.951 714.911 360.951C709.805 360.951 705.124 361.802 700.727 363.362C696.188 365.064 692.642 367.476 689.947 370.596C687.111 373.858 685.834 377.83 685.834 382.369C685.834 393.858 694.912 401.375 713.067 404.78C720.017 406.198 724.982 407.758 727.96 409.744C730.797 411.73 732.357 414.141 732.357 416.978C732.357 420.098 730.797 422.51 727.819 424.212C724.84 426.056 720.727 426.907 715.337 426.907C711.223 426.907 707.394 426.197 703.848 424.779C700.16 423.361 697.465 421.517 695.763 419.531C694.061 417.829 692.217 416.978 690.373 416.978C688.813 416.978 687.11 417.687 685.408 418.964C683.423 420.382 682.572 422.226 682.572 424.495C682.572 426.197 683.139 427.758 684.415 428.892C687.536 432.155 692.075 434.708 697.748 436.694C703.422 438.679 709.379 439.672 715.904 439.672C722.287 439.672 727.819 438.679 732.357 436.694C736.896 434.708 740.442 431.871 742.854 428.325C745.123 424.779 746.4 420.807 746.4 416.41C746.4 410.595 744.13 405.772 739.875 402.085C735.62 398.397 728.244 395.56 718.032 393.432C712.925 392.439 709.096 391.447 706.543 390.312C703.848 389.177 702.004 388.042 701.153 386.766C700.16 385.489 699.734 383.929 699.734 381.943C699.734 379.39 701.011 377.263 703.848 375.844C706.684 374.426 710.23 373.575 714.627 373.575C718.315 373.575 721.578 374.142 724.273 374.993C726.826 375.844 729.379 377.404 731.79 379.532C733.776 381.376 735.903 382.227 738.457 382.227C740.017 382.227 741.293 381.943 742.428 381.092C743.988 379.816 744.839 378.397 744.839 376.695C744.839 375.277 744.13 373.717 742.995 372.156C740.159 368.752 736.187 365.915 731.365 363.93Z" fill="#95B178"/>
<path d="M808.379 363.93C803.557 361.944 798.025 360.951 791.926 360.951C786.82 360.951 782.139 361.802 777.742 363.362C773.203 365.064 769.657 367.476 766.962 370.596C764.125 373.858 762.849 377.83 762.849 382.369C762.849 393.858 771.926 401.375 790.082 404.78C797.032 406.198 801.996 407.758 804.975 409.744C807.812 411.73 809.372 414.141 809.372 416.978C809.372 420.098 807.812 422.51 804.833 424.212C801.855 426.056 797.741 426.907 792.351 426.907C788.238 426.907 784.408 426.197 780.862 424.779C777.174 423.361 774.48 421.517 772.777 419.531C771.075 417.829 769.231 416.978 767.388 416.978C765.827 416.978 764.125 417.687 762.423 418.964C760.437 420.382 759.586 422.226 759.586 424.495C759.586 426.197 760.154 427.758 761.43 428.892C764.551 432.155 769.09 434.708 774.763 436.694C780.437 438.679 786.394 439.672 792.919 439.672C799.302 439.672 804.833 438.679 809.372 436.694C813.911 434.708 817.457 431.871 819.868 428.325C822.138 424.779 823.414 420.807 823.414 416.41C823.414 410.595 821.145 405.772 816.89 402.085C812.635 398.397 805.259 395.56 795.046 393.432C789.94 392.439 786.11 391.447 783.557 390.312C780.862 389.177 779.018 388.042 778.167 386.766C777.175 385.489 776.749 383.929 776.749 381.943C776.749 379.39 778.026 377.263 780.862 375.844C783.699 374.426 787.245 373.575 791.642 373.575C795.33 373.575 798.592 374.142 801.287 374.993C803.84 375.844 806.394 377.404 808.805 379.532C810.791 381.376 812.918 382.227 815.471 382.227C817.031 382.227 818.308 381.943 819.443 381.092C821.003 379.816 821.854 378.397 821.854 376.695C821.854 375.277 821.145 373.717 820.01 372.156C817.173 368.752 813.202 365.915 808.379 363.93Z" fill="#D5A738"/>
</svg>
